<mxfile host="drawio-plugin" modified="2021-03-28T08:25:30.831Z" agent="5.0 (Macintosh; Intel Mac OS X 10_16_0) AppleWebKit/537.36 (KHTML, like Gecko) Chrome/84.0.4147.105 Safari/537.36" etag="iBKOvhtwvyuhAB4IpPDk" version="13.7.9" type="embed"><diagram id="rjR9wzhXq8Hpp7HeJRx-" name="Page-1"><mxGraphModel dx="925" dy="633" grid="1" gridSize="10" guides="1" tooltips="1" connect="1" arrows="1" fold="1" page="1" pageScale="1" pageWidth="850" pageHeight="1100" math="0" shadow="0"><root><mxCell id="0"/><mxCell id="1" parent="0"/><mxCell id="66" style="edgeStyle=orthogonalEdgeStyle;rounded=0;orthogonalLoop=1;jettySize=auto;html=1;entryX=0;entryY=0.5;entryDx=0;entryDy=0;curved=1;" parent="1" source="61" target="62" edge="1"><mxGeometry relative="1" as="geometry"/></mxCell><mxCell id="67" style="edgeStyle=orthogonalEdgeStyle;curved=1;rounded=0;orthogonalLoop=1;jettySize=auto;html=1;entryX=0;entryY=0.5;entryDx=0;entryDy=0;" parent="1" source="61" target="65" edge="1"><mxGeometry relative="1" as="geometry"/></mxCell><mxCell id="68" style="edgeStyle=orthogonalEdgeStyle;curved=1;rounded=0;orthogonalLoop=1;jettySize=auto;html=1;entryX=0;entryY=0.5;entryDx=0;entryDy=0;" parent="1" source="61" target="63" edge="1"><mxGeometry relative="1" as="geometry"/></mxCell><mxCell id="69" style="edgeStyle=orthogonalEdgeStyle;curved=1;rounded=0;orthogonalLoop=1;jettySize=auto;html=1;entryX=0;entryY=0.5;entryDx=0;entryDy=0;" parent="1" source="61" target="64" edge="1"><mxGeometry relative="1" as="geometry"/></mxCell><mxCell id="61" value="Exchange&lt;br&gt;user-message" style="rounded=1;whiteSpace=wrap;html=1;" parent="1" vertex="1"><mxGeometry x="50" y="250" width="140" height="60" as="geometry"/></mxCell><mxCell id="62" value="RouteKey{groupId}&lt;br&gt;user-message-1" style="rounded=1;whiteSpace=wrap;html=1;" parent="1" vertex="1"><mxGeometry x="230" y="130" width="180" height="60" as="geometry"/></mxCell><mxCell id="63" value="RouteKey{userId}&lt;br&gt;user-message-1" style="rounded=1;whiteSpace=wrap;html=1;" parent="1" vertex="1"><mxGeometry x="230" y="210" width="180" height="60" as="geometry"/></mxCell><mxCell id="64" value="RouteKey{userId}&lt;br&gt;user-message-1" style="rounded=1;whiteSpace=wrap;html=1;" parent="1" vertex="1"><mxGeometry x="230" y="290" width="180" height="60" as="geometry"/></mxCell><mxCell id="65" value="RouteKey{userId}&lt;br&gt;user-message-1" style="rounded=1;whiteSpace=wrap;html=1;" parent="1" vertex="1"><mxGeometry x="230" y="370" width="180" height="60" as="geometry"/></mxCell><mxCell id="82" style="edgeStyle=orthogonalEdgeStyle;curved=1;rounded=0;orthogonalLoop=1;jettySize=auto;html=1;entryX=1;entryY=0.5;entryDx=0;entryDy=0;" parent="1" source="70" target="62" edge="1"><mxGeometry relative="1" as="geometry"/></mxCell><mxCell id="92" value="Text" style="edgeLabel;html=1;align=center;verticalAlign=middle;resizable=0;points=[];" vertex="1" connectable="0" parent="82"><mxGeometry x="-0.4581" y="19" relative="1" as="geometry"><mxPoint as="offset"/></mxGeometry></mxCell><mxCell id="70" value="queue for app-replica1 -amp.dk9329sadfj48" style="rounded=1;whiteSpace=wrap;html=1;" parent="1" vertex="1"><mxGeometry x="500" y="80" width="280" height="30" as="geometry"/></mxCell><mxCell id="84" style="edgeStyle=orthogonalEdgeStyle;curved=1;rounded=0;orthogonalLoop=1;jettySize=auto;html=1;entryX=1;entryY=0.5;entryDx=0;entryDy=0;" parent="1" source="72" target="62" edge="1"><mxGeometry relative="1" as="geometry"/></mxCell><mxCell id="72" value="queue for app-replica2 -amp.dk9329sa" style="rounded=1;whiteSpace=wrap;html=1;" parent="1" vertex="1"><mxGeometry x="500" y="120" width="280" height="30" as="geometry"/></mxCell><mxCell id="85" style="edgeStyle=orthogonalEdgeStyle;curved=1;rounded=0;orthogonalLoop=1;jettySize=auto;html=1;entryX=1;entryY=0.5;entryDx=0;entryDy=0;" parent="1" source="74" target="62" edge="1"><mxGeometry relative="1" as="geometry"/></mxCell><mxCell id="74" value="queue for app-replica3 -amp.dk9329sadfj48" style="rounded=1;whiteSpace=wrap;html=1;" parent="1" vertex="1"><mxGeometry x="500" y="160" width="280" height="30" as="geometry"/></mxCell><mxCell id="86" style="edgeStyle=orthogonalEdgeStyle;curved=1;rounded=0;orthogonalLoop=1;jettySize=auto;html=1;entryX=1;entryY=0.5;entryDx=0;entryDy=0;" parent="1" source="75" target="63" edge="1"><mxGeometry relative="1" as="geometry"/></mxCell><mxCell id="75" value="queue for app-replica1 -amp.dk9329sadfj48" style="rounded=1;whiteSpace=wrap;html=1;" parent="1" vertex="1"><mxGeometry x="500" y="200" width="280" height="30" as="geometry"/></mxCell><mxCell id="87" style="edgeStyle=orthogonalEdgeStyle;curved=1;rounded=0;orthogonalLoop=1;jettySize=auto;html=1;entryX=1.022;entryY=0.617;entryDx=0;entryDy=0;entryPerimeter=0;" parent="1" source="76" target="63" edge="1"><mxGeometry relative="1" as="geometry"/></mxCell><mxCell id="76" value="queue for app-replica2 -amp.dk9329sadfj48" style="rounded=1;whiteSpace=wrap;html=1;" parent="1" vertex="1"><mxGeometry x="500" y="240" width="280" height="30" as="geometry"/></mxCell><mxCell id="88" style="edgeStyle=orthogonalEdgeStyle;curved=1;rounded=0;orthogonalLoop=1;jettySize=auto;html=1;entryX=1;entryY=0.5;entryDx=0;entryDy=0;" parent="1" source="77" target="64" edge="1"><mxGeometry relative="1" as="geometry"/></mxCell><mxCell id="77" value="queue for app-replica1 -amp.dk9329sadfj48" style="rounded=1;whiteSpace=wrap;html=1;" parent="1" vertex="1"><mxGeometry x="500" y="280" width="280" height="30" as="geometry"/></mxCell><mxCell id="89" style="edgeStyle=orthogonalEdgeStyle;curved=1;rounded=0;orthogonalLoop=1;jettySize=auto;html=1;" parent="1" source="78" edge="1"><mxGeometry relative="1" as="geometry"><mxPoint x="410" y="320" as="targetPoint"/></mxGeometry></mxCell><mxCell id="78" value="queue for app-replica2 -amp.dk9329sadfj48" style="rounded=1;whiteSpace=wrap;html=1;" parent="1" vertex="1"><mxGeometry x="500" y="320" width="280" height="30" as="geometry"/></mxCell><mxCell id="90" style="edgeStyle=orthogonalEdgeStyle;curved=1;rounded=0;orthogonalLoop=1;jettySize=auto;html=1;entryX=1;entryY=0.5;entryDx=0;entryDy=0;" parent="1" source="79" target="64" edge="1"><mxGeometry relative="1" as="geometry"/></mxCell><mxCell id="79" value="queue for app-replica-3 -amp.dk9329sadfj48" style="rounded=1;whiteSpace=wrap;html=1;" parent="1" vertex="1"><mxGeometry x="500" y="360" width="280" height="30" as="geometry"/></mxCell><mxCell id="91" style="edgeStyle=orthogonalEdgeStyle;curved=1;rounded=0;orthogonalLoop=1;jettySize=auto;html=1;entryX=1;entryY=0.5;entryDx=0;entryDy=0;" parent="1" source="80" target="65" edge="1"><mxGeometry relative="1" as="geometry"/></mxCell><mxCell id="80" value="queue for app-replica1 -amp.dk9329sadfj48" style="rounded=1;whiteSpace=wrap;html=1;" parent="1" vertex="1"><mxGeometry x="500" y="400" width="280" height="30" as="geometry"/></mxCell><mxCell id="93" value="Queue = group + application replica" style="text;html=1;strokeColor=none;fillColor=none;align=center;verticalAlign=middle;whiteSpace=wrap;rounded=0;" vertex="1" parent="1"><mxGeometry x="273" y="20" width="305" height="20" as="geometry"/></mxCell></root></mxGraphModel></diagram></mxfile>